<svg width="224" height="50" viewBox="0 0 224 50" fill="none" xmlns="http://www.w3.org/2000/svg">
<path d="M49.6961 43.4529H70.8539V49.9834H49.6961V43.4529ZM203.62 23.3574C204.143 20.1175 205.973 18.4971 208.901 18.4971C211.614 18.4971 213.759 20.3795 214.069 23.3574H203.62ZM223.004 28.0585C223.004 18.601 217.571 12.9592 209.21 12.9592C200.643 12.9592 194.844 19.178 194.844 26.9609C194.844 34.7459 200.327 40.5469 209.734 40.5469C215.848 40.5469 220.08 38.2477 221.698 34.3812L214.856 31.6111C213.86 33.6494 211.98 34.6951 209.21 34.6951C205.556 34.6951 203.463 32.501 203.411 28.4774H223.004V28.0585ZM182.348 13.7949H191.44V39.5532H182.348V13.7949ZM191.908 5.7478C191.908 8.5687 189.611 10.8181 186.892 10.8181C184.071 10.8181 181.877 8.41394 181.877 5.7478C181.877 3.03192 184.123 0.732758 186.892 0.732758C189.662 0.732758 191.908 2.92691 191.908 5.7478ZM176.069 13.7949H179.936V20.2214H176.069V39.5543H167.134V20.2214H163.267V13.7949H167.134V6.11367H176.069V13.7949ZM151.762 13.7949H160.855V39.5532H151.762V13.7949ZM161.327 5.7478C161.327 8.5687 159.026 10.8181 156.311 10.8181C153.485 10.8181 151.296 8.41394 151.296 5.7478C151.296 3.03192 153.542 0.732758 156.311 0.732758C159.081 0.732758 161.327 2.92691 161.327 5.7478ZM137.544 -9.15527e-05H146.637V39.5532H137.544V-9.15527e-05ZM118.506 33.1277C114.795 33.1277 112.549 30.6716 112.549 26.648C112.549 22.6765 114.795 20.1175 118.506 20.1175C122.216 20.1175 124.513 22.6765 124.513 26.648C124.513 30.6716 122.216 33.1277 118.506 33.1277ZM124.096 18.0262C122.058 14.5277 119.344 12.9592 115.476 12.9592C108.159 12.9592 103.564 18.3412 103.564 26.7022C103.564 35.2168 108.159 40.5469 114.903 40.5469C118.978 40.5469 121.747 38.9795 124.151 35.3738V39.5012H132.511V13.7949H124.096V18.0262ZM91.5286 13.7949H100.411V26.9609C100.411 30.9855 100.305 34.1723 97.3274 37.1501C95.0293 39.4504 91.6347 40.5469 87.0884 40.5469C82.5431 40.5469 79.1994 39.4504 76.7952 37.1501C73.9213 34.3812 73.7654 31.1402 73.7654 26.9609V13.7949H82.4392V27.5379C82.4392 31.5592 83.5368 33.6494 86.9845 33.6494C90.431 33.6494 91.5286 31.5592 91.5286 27.5379V13.7949ZM40.5647 20.9543C40.5647 14.8394 44.5871 9.98135 50.335 9.98135C56.0298 9.98135 60.1053 14.8914 60.1053 20.9543C60.1053 27.067 56.1337 31.925 50.335 31.925C44.3782 31.925 40.5647 27.1189 40.5647 20.9543ZM70.2946 20.9543C70.2946 15.6762 68.3071 10.8181 64.4936 7.1074C60.7321 3.44864 55.559 1.3595 50.335 1.3595C45.1099 1.3595 39.9877 3.44864 36.2272 7.1074C32.4126 10.8181 30.3754 15.6231 30.3754 20.9543C30.3754 26.9609 32.9344 32.2909 37.6366 36.0525C41.187 38.8811 45.6472 40.4883 50.1228 40.5381V40.5403H50.1747C50.2278 40.5403 50.2808 40.5469 50.335 40.5469C50.3836 40.5469 50.4323 40.5403 50.4809 40.5403H70.8528V34.0098H65.2298C68.5083 30.4527 70.2946 25.913 70.2946 20.9543ZM8.77881 23.3574C9.30054 20.1175 11.1299 18.4971 14.0569 18.4971C16.7728 18.4971 18.915 20.3795 19.2278 23.3574H8.77881ZM14.3697 12.9592C5.80096 12.9592 0 19.178 0 26.9609C0 34.7459 5.48593 40.5469 14.8926 40.5469C21.0041 40.5469 25.2377 38.2477 26.8559 34.3812L20.0137 31.6111C19.02 33.6494 17.1387 34.6951 14.3697 34.6951C10.7132 34.6951 8.62185 32.501 8.56879 28.4774H28.1625V28.0585C28.1625 18.601 22.7296 12.9592 14.3697 12.9592Z" fill="#E36447"/>
</svg>
